<?xml version="1.0" encoding="UTF-8"?>
<svg width="255px" height="255px" viewBox="0 0 255 255" version="1.1" xmlns="http://www.w3.org/2000/svg" xmlns:xlink="http://www.w3.org/1999/xlink">
    <!-- Generator: Sketch 52.6 (67491) - http://www.bohemiancoding.com/sketch -->
    <title>logo</title>
    <desc>Created with Sketch.</desc>
    <defs>
        <path d="M59.5952148,158.717285 C59.5952148,150.305134 60.3615646,143.10501 61.8942871,137.116699 C63.4270096,131.128388 65.4587276,126.084737 67.9895019,121.985596 C70.5202763,117.886454 73.4252766,114.642834 76.7045898,112.254639 C79.9839031,109.866443 83.3522776,108.030768 86.8098144,106.747559 C90.2673513,105.464349 93.7070141,104.644533 97.1289062,104.288086 C100.550798,103.931639 103.687486,103.753418 106.539062,103.753418 C113.881873,103.753418 120.155247,104.697989 125.359375,106.587158 C130.563503,108.476328 134.822981,111.007064 138.137939,114.179443 C141.452897,117.351823 143.858879,121.040995 145.355957,125.24707 C146.853035,129.453146 147.601562,133.873024 147.601562,138.506836 C147.601562,141.001966 147.369875,143.746567 146.906494,146.740723 C146.443113,149.734878 145.712407,152.728989 144.714355,155.723145 L123.648437,155.723145 L123.648437,150.162598 C123.648437,144.602023 123.309818,140.075213 122.632568,136.582031 C121.955319,133.08885 120.921638,130.326426 119.531494,128.294678 C118.14135,126.262929 116.376964,124.872806 114.238281,124.124268 C112.099599,123.375729 109.533218,123.001465 106.539062,123.001465 C100.408172,123.001465 95.7209635,125.086649 92.4772949,129.25708 C89.2336263,133.427511 87.6118164,140.110794 87.6118164,149.307129 L87.6118164,184.488281 C90.3208143,181.494126 93.8674097,178.981211 98.251709,176.949463 C102.636008,174.917714 107.715303,173.901855 113.489746,173.901855 C117.624532,173.901855 121.812723,174.561273 126.054443,175.880127 C130.296164,177.198981 134.145735,179.551497 137.603271,182.937744 C141.060808,186.323992 143.876698,190.92209 146.051025,196.732178 C148.225353,202.542265 149.3125,209.974076 149.3125,219.027832 L149.3125,236.778809 C149.3125,246.545459 148.296641,254.779263 146.264893,261.480469 C144.233144,268.181674 141.328144,273.617411 137.549805,277.787842 C133.771465,281.958273 129.226833,284.970206 123.915771,286.82373 C118.60471,288.677255 112.63431,289.604004 106.004395,289.604004 C98.5190055,289.604004 91.9070111,288.605967 86.1682129,286.609863 C80.4294146,284.61376 75.5818069,281.405784 71.6252441,276.98584 C67.6686814,272.565896 64.6745707,266.809362 62.6428222,259.716064 C60.6110738,252.622767 59.5952148,243.979055 59.5952148,233.784668 L59.5952148,158.717285 Z M87.6118164,244.157227 C87.6118164,252.569378 89.0554055,258.771464 91.9426269,262.763672 C94.8298484,266.755879 99.4101249,268.751953 105.683594,268.751953 C111.172879,268.751953 115.200671,266.791524 117.76709,262.870605 C120.333509,258.949687 121.616699,253.068399 121.616699,245.226562 L121.616699,218.06543 C121.616699,213.645486 121.224613,209.938492 120.44043,206.944336 C119.656246,203.95018 118.551277,201.544199 117.125488,199.726318 C115.6997,197.908438 113.988779,196.607426 111.992676,195.823242 C109.996572,195.039059 107.750989,194.646973 105.255859,194.646973 C103.331045,194.646973 101.49537,194.932126 99.7487793,195.502441 C98.0021885,196.072757 96.3803786,196.821284 94.8833008,197.748047 C93.386223,198.674809 92.0317443,199.744135 90.8198242,200.956055 C89.6079041,202.167975 88.5385788,203.379877 87.6118164,204.591797 L87.6118164,244.157227 Z M168.988281,240.735352 L222.241211,105.357422 L255.283691,105.357422 L255.283691,233.570801 L272.179199,233.570801 L272.179199,255.27832 L255.283691,255.27832 L255.283691,288 L229.512695,288 L229.512695,255.27832 L168.988281,255.27832 L168.988281,240.735352 Z M229.512695,233.570801 L229.512695,206.623535 L232.079102,137.758301 L228.871094,137.758301 L197.21875,233.570801 L229.512695,233.570801 Z" id="path-1"></path>
    </defs>
    <g id="logo" stroke="none" stroke-width="1" fill="none" fill-rule="evenodd">
        <g>
            <rect id="Rectangle" fill="#252D40" x="0" y="0" width="255" height="255"></rect>
            <g id="64">
                <use fill="#000000" xlink:href="#path-1"></use>
                <use fill="#2DA384" xlink:href="#path-1"></use>
            </g>
        </g>
    </g>
</svg>